<svg width="40" height="35" viewBox="0 0 40 35" fill="none" xmlns="http://www.w3.org/2000/svg">
<path d="M12.4897 23.1953H34.8846V25.6133H12C10.8304 25.6133 9.87286 25.3354 9.2198 24.8323C8.5843 24.3427 8.1899 23.6052 8.1899 22.5586C8.1899 22.0352 8.36062 21.5118 8.60287 21.1516L11.6116 16.8001L11.7883 16.5445L11.6374 16.2729L4.43708 3.31187L4.29421 3.05468H4H0.5V0.5H6.20034L7.95944 3.79049L8.10072 4.05476H8.40038H38C38.9163 4.05476 39.5 4.62624 39.5 5.24366C39.5 5.52418 39.436 5.75232 39.3711 5.87427L32.1812 16.8643L32.1764 16.8717L32.1719 16.8792C31.5713 17.8714 30.4409 18.5039 29.0996 18.5039H14.2002H13.9426L13.7931 18.7137L11.7948 21.5164L11.783 21.533L11.7725 21.5506L12.2019 21.8067L11.7725 21.5506L11.7724 21.5507L11.7724 21.5508L11.7721 21.5512L11.7714 21.5523L11.7692 21.5561L11.7614 21.5693C11.7549 21.5805 11.7458 21.5962 11.7349 21.6152C11.7133 21.6529 11.684 21.7051 11.6541 21.7613C11.6251 21.8161 11.5917 21.8819 11.5643 21.945C11.5507 21.9763 11.5353 22.0144 11.5225 22.0546C11.5131 22.0839 11.4897 22.1597 11.4897 22.251C11.4897 22.5171 11.5936 22.7678 11.7951 22.9468C11.9913 23.1212 12.2424 23.1953 12.4897 23.1953ZM8.19231 31.4453C8.19231 29.82 9.71115 28.3906 11.6923 28.3906C13.6734 28.3906 15.1923 29.8199 15.1924 31.4453C15.1924 33.0706 13.6735 34.5 11.6923 34.5C9.71115 34.5 8.19231 33.0706 8.19231 31.4453ZM27.8845 31.4453C27.8845 29.82 29.4034 28.3906 31.3845 28.3906C33.3657 28.3906 34.8846 29.8199 34.8846 31.4452C34.8846 33.0705 33.3657 34.5 31.3845 34.5C29.4034 34.5 27.8845 33.0706 27.8845 31.4453Z" fill="#3DD2CC" stroke="black"/>
</svg>
