<svg width="123" height="96" viewBox="0 0 123 96" fill="none" xmlns="http://www.w3.org/2000/svg">
<g clip-path="url(#clip0_423_26)">
<path d="M12.14 0H32.8H62.23H91.03H110.74C114.08 0 117.12 1.37 119.32 3.56C121.52 5.76 122.88 8.8 122.88 12.14V19.27V76.52V83.61C122.88 86.95 121.51 89.99 119.32 92.19C117.12 94.39 114.08 95.75 110.74 95.75H91.54C91.38 95.78 91.21 95.79 91.03 95.79C90.86 95.79 90.69 95.78 90.52 95.75H62.74C62.58 95.78 62.41 95.79 62.23 95.79C62.06 95.79 61.89 95.78 61.72 95.75H33.31C33.15 95.78 32.98 95.79 32.8 95.79C32.63 95.79 32.46 95.78 32.29 95.75H12.14C8.8 95.75 5.76 94.38 3.56 92.19C1.36 90 0 86.95 0 83.61V76.52V19.27V12.14C0 8.8 1.37 5.76 3.56 3.56C5.76 1.37 8.8 0 12.14 0ZM55.19 31.24L75.72 45.56C76.04 45.76 76.33 46.04 76.56 46.37C77.48 47.7 77.14 49.51 75.82 50.43L55.37 64.57C54.87 64.98 54.22 65.23 53.52 65.23C51.9 65.23 50.59 63.92 50.59 62.3V33.63H50.6C50.6 33.05 50.77 32.47 51.12 31.96C52.05 30.64 53.87 30.32 55.19 31.24ZM93.95 79.45V89.9H110.73C112.46 89.9 114.03 89.19 115.17 88.05C116.31 86.91 117.02 85.34 117.02 83.61V79.45H93.95ZM88.1 89.9V79.45H65.16V89.9H88.1ZM59.31 89.9V79.45H35.73V89.9H59.31ZM29.87 89.9V79.45H5.85V83.61C5.85 85.34 6.56 86.91 7.7 88.05C8.84 89.19 10.41 89.9 12.14 89.9H29.87ZM5.85 73.6H32.8H62.23H91.03H117.03V22.2H91.03H62.23H32.8H5.85V73.6ZM88.1 16.35V5.85H65.16V16.34H88.1V16.35ZM93.95 5.85V16.34H117.02V12.14C117.02 10.41 116.31 8.84 115.17 7.7C114.03 6.56 112.46 5.85 110.73 5.85H93.95ZM59.31 16.35V5.85H35.73V16.34H59.31V16.35ZM29.87 16.35V5.85H12.14C10.41 5.85 8.84 6.56 7.7 7.7C6.56 8.84 5.85 10.41 5.85 12.14V16.34H29.87V16.35Z" fill="#7B7B7B"/>
</g>
<defs>
<clipPath id="clip0_423_26">
<rect width="122.88" height="95.8" fill="white"/>
</clipPath>
</defs>
</svg>
